# xmcd
#
# Track frame offsets: 
#        150
#        20217
#        34797
#        50171
#        68331
#        98942
#        115965
#        134590
#        152202
#        176739
#        195221
#        212250
#        229901
#        243122
#        261213
#
# Disc length: 3694 seconds
#
# Revision: 10
# Processed by: cddbd v1.5.1PL2 Copyright (c) Steve Scherf et al.
# Submitted via: ExactAudioCopy v0.95b4
#
DISCID=cf0e6c0f
DTITLE=Zeca Baleiro - Perfil
DYEAR=2003
DGENRE=
TTITLE0=Telegrama
TTITLE1=Proibida prá mim
TTITLE2=Bandeira
TTITLE3=Salão de Beleza
TTITLE4=Vapor Barato - Flor da Pele
TTITLE5=Meu amor meu bem me ame
TTITLE6=Lenha
TTITLE7=Mamãe Oxum
TTITLE8=Piercing
TTITLE9=Babylon
TTITLE10=Samba do Approach
TTITLE11=Quase Nada
TTITLE12=Bienal
TTITLE13=Heavy Metal do Senhor
TTITLE14=Bicho de 7 Cabeças
EXTD=
EXTT0=
EXTT1=
EXTT2=
EXTT3=
EXTT4=
EXTT5=
EXTT6=
EXTT7=
EXTT8=
EXTT9=
EXTT10=
EXTT11=
EXTT12=
EXTT13=
EXTT14=
PLAYORDER=
